<svg width="340" height="236" viewBox="0 0 340 236" fill="none" xmlns="http://www.w3.org/2000/svg">
<path d="M209.277 55.1479C216.606 51.5461 220.235 52.0189 220.318 55.6696C220.416 60.4121 219.715 66.7188 219.21 71.2822C216.492 96.0847 211.948 116.352 211.606 141.817C223.575 110.807 233.608 89.2546 246.537 62.7099C250.643 54.2517 253.265 55.8325 256.635 54.3331C269.762 48.4827 270.251 52.0679 268.541 59.2224C262.173 85.7215 245.869 169.156 243.379 182.003C242.662 185.72 238.623 184.144 237.581 182.691C232.908 176.221 227.631 176.12 228.217 171.817C231.149 150.398 241.701 96.6568 244.454 83.9938C230.432 112.761 215.888 148.724 208.412 169.115C206.832 173.445 203.951 173.127 202.158 169.959C199.635 165.509 194.733 163.237 193.918 157.978C191.361 141.257 196.85 109.386 197.615 89.2235C189.977 111.249 177.16 154.011 171.541 173.331C169.229 181.325 161.509 180.021 163.561 172.229C172.095 139.806 190.482 82.4619 198.43 61.8462C200.303 56.9893 205.205 57.1523 209.277 55.1479Z" fill="#F59376"/>
<path d="M162.732 51.1717C160.256 50.5689 153.074 54.4476 148.661 55.2134C147.26 55.4578 145.924 56.9407 145.452 58.0003C138.384 74.2485 132.049 89.7372 126.561 103.847C119.541 105.047 111.333 106.626 102.148 108.69C108.727 91.8018 115.372 75.1446 121.854 59.1245C125.046 51.2366 116.643 50.4871 113.385 58.4727C109.151 68.8542 101.22 88.3047 92.4415 110.975C85.9921 112.558 79.1522 114.367 72.0026 116.433C66.8072 117.934 66.5958 119.319 68.8433 122.437C70.0809 124.173 72.638 123.998 73.8103 125.235C76.8396 128.441 78.6799 132.275 84.1028 132.856C79.2658 145.804 74.4289 159.156 70.0483 172.013C67.2958 180.083 75.1294 181.734 78.1424 173.194C82.9956 159.428 88.1093 145.495 93.3697 131.604C97.7506 130.585 108.352 128.3 118.14 126.175C110.372 147.482 105.258 163.663 103.32 171.54C102.962 173.055 103.564 173.896 103.89 174.514C106.512 178.332 109.004 178.489 112.375 183.21C113.287 184.497 116.349 185.192 117.391 182.022C124.59 160.263 132 139.848 138.905 121.546C141.771 120.919 146.934 119.672 150.093 114.954C155.712 106.581 157.324 108.279 158.676 105.733C160.37 102.538 159.246 99.5373 153.253 100.279C153.253 100.279 150.989 100.44 146.804 100.917C153.448 83.7975 159.262 69.2766 163.448 58.2112C164.881 54.4639 165.061 51.7259 162.732 51.1717Z" fill="#F59376"/>
<path d="M152.928 162.211C154.475 166.124 159.312 164.939 157.472 160.216C155.599 155.405 150.941 140.922 149.719 136.256C148.058 129.969 155.257 131.688 151.609 135.799C148.482 139.333 146.397 140.749 140.616 147.471C135.03 153.958 136.544 162.378 142.521 164.237C149.263 166.336 155.208 158.901 158.888 153.447C162.455 148.165 159.002 145.067 155.403 148.19C153.09 150.197 150.42 153.28 147.716 154.943C145.517 156.281 143.791 154.844 146.723 150.805C150.127 146.13 153.937 142.212 156.771 137.794C162.553 128.79 151.12 123.599 146.201 129.448C143.563 132.566 144.231 135.626 144.948 138.253C146.104 142.461 150.403 155.893 152.928 162.211Z" fill="#F59376"/>
</svg>
