<svg width="340" height="236" viewBox="0 0 340 236" fill="none" xmlns="http://www.w3.org/2000/svg">
<path d="M298.728 164.231V157.96H290.946V148.212L290.684 148.292L283.375 150.53L283.232 150.574V157.96H271.695V153.846C271.695 151.93 272.124 150.463 272.967 149.486C273.806 148.519 275.005 148.028 276.532 148.028C277.631 148.028 278.769 148.287 279.914 148.798L280.201 148.926V142.322L280.066 142.273C278.999 141.889 277.544 141.695 275.744 141.695C273.474 141.695 271.412 142.189 269.614 143.169C267.814 144.15 266.399 145.55 265.406 147.331C264.418 149.109 263.917 151.163 263.917 153.436V157.96H258.498V164.231H263.917V190.648H271.695V164.231H283.232V181.019C283.232 187.933 286.49 191.437 292.917 191.437C293.974 191.437 295.085 191.312 296.221 191.07C297.376 190.821 298.162 190.572 298.626 190.306L298.728 190.246V183.917L298.412 184.127C297.989 184.409 297.465 184.639 296.848 184.809C296.228 184.984 295.712 185.071 295.311 185.071C293.805 185.071 292.691 184.665 292.001 183.864C291.301 183.055 290.946 181.641 290.946 179.663V164.231H298.728ZM241.127 185.072C238.305 185.072 236.078 184.135 234.51 182.289C232.931 180.435 232.132 177.79 232.132 174.431C232.132 170.965 232.931 168.252 234.51 166.364C236.08 164.489 238.285 163.538 241.064 163.538C243.762 163.538 245.908 164.447 247.445 166.241C248.992 168.044 249.776 170.735 249.776 174.242C249.776 177.791 249.039 180.518 247.585 182.341C246.14 184.152 243.969 185.072 241.127 185.072ZM241.475 157.173C236.088 157.173 231.809 158.752 228.759 161.867C225.711 164.982 224.164 169.294 224.164 174.682C224.164 179.8 225.674 183.917 228.649 186.916C231.627 189.916 235.675 191.436 240.687 191.436C245.908 191.436 250.101 189.834 253.151 186.676C256.199 183.521 257.744 179.251 257.744 173.988C257.744 168.791 256.293 164.643 253.434 161.664C250.572 158.683 246.547 157.173 241.475 157.173ZM211.624 157.172C207.96 157.172 204.93 158.11 202.613 159.959C200.284 161.82 199.102 164.259 199.102 167.212C199.102 168.746 199.358 170.109 199.859 171.265C200.364 172.425 201.146 173.446 202.184 174.304C203.214 175.154 204.804 176.044 206.913 176.95C208.683 177.68 210.004 178.297 210.845 178.784C211.665 179.26 212.247 179.739 212.577 180.206C212.895 180.663 213.058 181.287 213.058 182.059C213.058 184.255 211.415 185.323 208.033 185.323C206.779 185.323 205.348 185.062 203.78 184.545C202.212 184.028 200.745 183.286 199.425 182.335L199.102 182.103V189.597L199.22 189.652C200.323 190.161 201.708 190.589 203.346 190.927C204.977 191.264 206.461 191.437 207.75 191.437C211.726 191.437 214.927 190.494 217.262 188.634C219.614 186.761 220.805 184.264 220.805 181.209C220.805 179.006 220.165 177.116 218.899 175.593C217.643 174.081 215.466 172.694 212.425 171.467C210.002 170.494 208.451 169.687 207.811 169.067C207.194 168.468 206.881 167.621 206.881 166.549C206.881 165.598 207.268 164.837 208.062 164.22C208.862 163.6 209.975 163.285 211.372 163.285C212.669 163.285 213.994 163.49 215.312 163.891C216.631 164.293 217.789 164.83 218.754 165.488L219.072 165.705V158.597L218.95 158.544C218.058 158.162 216.883 157.834 215.456 157.569C214.033 157.306 212.744 157.172 211.624 157.172ZM178.824 185.072C176.002 185.072 173.775 184.135 172.207 182.289C170.628 180.435 169.829 177.791 169.829 174.431C169.829 170.965 170.629 168.252 172.208 166.364C173.777 164.489 175.981 163.538 178.762 163.538C181.458 163.538 183.605 164.447 185.143 166.241C186.689 168.044 187.473 170.735 187.473 174.242C187.473 177.791 186.735 180.518 185.28 182.341C183.836 184.152 181.665 185.072 178.824 185.072ZM179.171 157.173C173.783 157.173 169.505 158.752 166.456 161.867C163.408 164.982 161.861 169.294 161.861 174.682C161.861 179.802 163.371 183.917 166.347 186.916C169.323 189.916 173.373 191.436 178.383 191.436C183.604 191.436 187.798 189.834 190.847 186.676C193.895 183.521 195.441 179.251 195.441 173.988C195.441 168.791 193.991 164.643 191.13 161.664C188.268 158.683 184.244 157.173 179.171 157.173ZM150.054 163.621V157.96H142.37V190.647H150.054V173.927C150.054 171.083 150.698 168.748 151.969 166.983C153.224 165.24 154.896 164.357 156.938 164.357C157.63 164.357 158.407 164.471 159.248 164.697C160.081 164.922 160.684 165.165 161.04 165.422L161.363 165.656V157.904L161.238 157.851C160.523 157.546 159.511 157.393 158.23 157.393C156.299 157.393 154.571 158.014 153.091 159.236C151.792 160.31 150.853 161.784 150.135 163.621H150.054ZM128.61 157.172C125.085 157.172 121.941 157.929 119.266 159.42C116.586 160.914 114.513 163.048 113.103 165.761C111.699 168.468 110.987 171.63 110.987 175.155C110.987 178.244 111.678 181.078 113.044 183.576C114.41 186.078 116.345 188.035 118.793 189.393C121.239 190.749 124.065 191.437 127.193 191.437C130.845 191.437 133.963 190.706 136.462 189.265L136.563 189.207V182.163L136.241 182.399C135.108 183.224 133.843 183.883 132.481 184.358C131.123 184.832 129.885 185.071 128.8 185.071C125.785 185.071 123.364 184.127 121.607 182.266C119.847 180.403 118.954 177.786 118.954 174.493C118.954 171.179 119.885 168.495 121.72 166.514C123.549 164.54 125.974 163.538 128.926 163.538C131.452 163.538 133.913 164.394 136.241 166.084L136.563 166.318V158.896L136.459 158.837C135.583 158.347 134.388 157.941 132.904 157.634C131.428 157.327 129.983 157.172 128.61 157.172ZM105.695 157.96H98.011V190.647H105.695V157.96ZM101.931 144.036C100.667 144.036 99.5638 144.466 98.6576 145.32C97.7477 146.176 97.2858 147.254 97.2858 148.526C97.2858 149.778 97.7422 150.836 98.6431 151.669C99.5383 152.5 100.645 152.922 101.931 152.922C103.217 152.922 104.328 152.5 105.234 151.671C106.146 150.836 106.609 149.778 106.609 148.526C106.609 147.298 106.159 146.231 105.272 145.354C104.386 144.479 103.262 144.036 101.931 144.036ZM82.76 155.549V190.647H90.6016V145.036H79.7487L65.9538 178.915L52.5666 145.036H41.2717V190.647H48.6407V155.545H48.894L63.0304 190.647H68.5914L82.507 155.549H82.76Z" fill="#F59376"/>
<path d="M163.039 78.9516H126.893V42.7807H163.039V78.9516Z" fill="#F59376"/>
<path d="M202.949 78.9516H166.802V42.7807H202.949V78.9516Z" fill="#F59376"/>
<path d="M163.038 118.903H126.893V82.7325H163.038V118.903Z" fill="#F59376"/>
<path d="M202.949 118.903H166.802V82.7325H202.949V118.903Z" fill="#F59376"/>
</svg>
