<svg width="340" height="235" viewBox="0 0 340 235" fill="none" xmlns="http://www.w3.org/2000/svg">
<path d="M171.899 53.9772L149.167 68.6979L171.899 83.4185L149.167 98.1391L126.436 83.296L149.167 68.5752L126.436 53.9772L149.167 39.2566L171.899 53.9772ZM149.046 102.801L171.778 88.0802L194.51 102.801L171.778 117.521L149.046 102.801ZM171.899 83.296L194.63 68.5752L171.899 53.9772L194.51 39.2566L217.24 53.9772L194.51 68.6979L217.24 83.4185L194.51 98.1391L171.899 83.296Z" fill="#F59376"/>
<path d="M42.9398 140.473H59.5562C70.1603 140.473 78.9058 146.608 78.9058 160.632V163.59C78.9058 177.723 70.7069 184.078 59.8843 184.078H42.9398V140.473ZM52.232 148.361V176.08H59.3378C65.3503 176.08 69.3951 172.136 69.3951 163.371V161.07C69.3951 152.305 65.1317 148.361 59.0097 148.361H52.232ZM83.8252 148.799H91.2589L92.4614 157.016C93.8826 151.429 97.4901 148.47 104.049 148.47H106.345V157.893H102.519C94.9758 157.893 93.1174 160.522 93.1174 167.972V184.187H83.9344V148.799H83.8252ZM108.203 167.205V166.219C108.203 154.387 115.747 147.923 126.023 147.923C136.517 147.923 143.841 154.387 143.841 166.219V167.205C143.841 178.819 136.736 185.064 126.023 185.064C114.653 184.954 108.203 178.819 108.203 167.205ZM134.44 167.096V166.219C134.44 159.646 131.16 155.701 125.913 155.701C120.775 155.701 117.386 159.317 117.386 166.219V167.096C117.386 173.45 120.666 177.066 125.913 177.066C131.16 176.956 134.44 173.45 134.44 167.096ZM148.651 148.799H156.304L157.178 155.482C159.037 150.99 162.972 147.923 168.766 147.923C177.73 147.923 183.634 154.387 183.634 166.329V167.315C183.634 178.928 177.075 185.064 168.766 185.064C163.191 185.064 159.365 182.544 157.506 178.49V196.348H148.542L148.651 148.799ZM174.342 167.096V166.329C174.342 159.317 170.734 155.811 165.924 155.811C160.786 155.811 157.397 159.755 157.397 166.329V166.986C157.397 173.231 160.677 177.175 165.815 177.175C171.062 177.066 174.342 173.67 174.342 167.096ZM197.19 177.614L196.424 184.078H188.553V136.967H197.517V155.044C199.484 150.443 203.42 147.923 208.996 147.923C217.412 148.032 223.644 153.839 223.644 165.562V166.657C223.644 178.38 217.741 185.064 208.778 185.064C202.874 184.954 199.048 182.215 197.19 177.614ZM214.243 166.657V165.781C214.243 159.317 210.745 155.701 205.825 155.701C200.797 155.701 197.298 159.755 197.298 165.891V166.657C197.298 173.231 200.688 177.066 205.716 177.066C211.074 177.066 214.243 173.67 214.243 166.657ZM227.579 167.205V166.219C227.579 154.387 235.124 147.923 245.4 147.923C255.893 147.923 263.219 154.387 263.219 166.219V167.205C263.219 178.819 256.002 185.064 245.4 185.064C234.029 184.954 227.579 178.819 227.579 167.205ZM253.925 167.096V166.219C253.925 159.646 250.646 155.701 245.4 155.701C240.261 155.701 236.872 159.317 236.872 166.219V167.096C236.872 173.45 240.151 177.066 245.4 177.066C250.646 176.956 253.925 173.45 253.925 167.096ZM275.244 165.781L262.89 148.799H273.495L280.6 159.427L287.816 148.799H298.309L285.739 165.671L298.965 184.078H288.58L280.49 172.355L272.619 184.078H261.796L275.244 165.781Z" fill="#F59376"/>
</svg>
