<svg width="340" height="236" viewBox="0 0 340 236" fill="none" xmlns="http://www.w3.org/2000/svg">
<path d="M176.973 95.439C176.973 98.6989 174.264 101.366 170.953 101.366C167.642 101.366 164.933 98.6989 164.933 95.439C164.933 92.1788 167.491 89.5115 170.953 89.5115C174.415 89.5856 176.973 92.253 176.973 95.439ZM152.291 107.294C152.291 107.812 152.291 108.776 152.291 108.776C152.291 108.776 149.431 105.145 143.336 105.145C133.327 105.145 125.426 112.702 125.426 123.075C125.426 133.448 133.176 141.006 143.336 141.006C149.506 141.006 152.291 137.301 152.291 137.301V138.857C152.291 139.598 152.817 140.117 153.57 140.117H161.02V106.034C161.02 106.034 154.172 106.034 153.57 106.034C152.817 106.034 152.291 106.701 152.291 107.294ZM152.291 129.151C150.936 131.151 148.152 132.855 144.841 132.855C138.971 132.855 134.456 129.225 134.456 123.075C134.456 116.926 138.971 113.295 144.841 113.295C148.076 113.295 151.011 115.073 152.291 117V129.151ZM166.588 106.034H175.468V140.117H166.588V106.034ZM298.656 105.145C292.561 105.145 289.702 108.776 289.702 108.776V89.6597H280.822V140.191C280.822 140.191 287.669 140.191 288.271 140.191C289.024 140.191 289.55 139.524 289.55 138.931V137.375C289.55 137.375 292.41 141.08 298.506 141.08C308.514 141.08 316.416 133.448 316.416 123.149C316.491 112.777 308.59 105.145 298.656 105.145ZM297.227 132.781C293.841 132.781 291.13 131.077 289.776 129.077V116.926C291.13 115.148 294.141 113.221 297.227 113.221C303.095 113.221 307.612 116.852 307.612 123.001C307.612 129.151 303.095 132.781 297.227 132.781ZM276.306 119.889V140.191H267.427V120.927C267.427 115.296 265.621 112.999 260.578 112.999C257.869 112.999 255.161 114.332 253.43 116.333V140.117H244.55V106.034H251.549C252.302 106.034 252.828 106.701 252.828 107.294V108.776C255.385 106.108 258.848 105.145 262.234 105.145C266.073 105.145 269.307 106.256 271.941 108.405C275.101 110.924 276.306 114.184 276.306 119.889ZM223.103 105.145C217.008 105.145 214.147 108.776 214.147 108.776V89.6597H205.268V140.191C205.268 140.191 212.117 140.191 212.718 140.191C213.471 140.191 213.998 139.524 213.998 138.931V137.375C213.998 137.375 216.857 141.08 222.952 141.08C232.961 141.08 240.861 133.448 240.861 123.149C241.013 112.777 233.187 105.145 223.103 105.145ZM221.672 132.781C218.286 132.781 215.578 131.077 214.224 129.077V116.926C215.578 115.148 218.589 113.221 221.672 113.221C227.543 113.221 232.059 116.852 232.059 123.001C232.059 129.151 227.543 132.781 221.672 132.781ZM197.668 105.145C200.376 105.145 201.732 105.59 201.732 105.59V113.666C201.732 113.666 194.357 111.221 189.766 116.407V140.265H180.886V106.034C180.886 106.034 187.734 106.034 188.336 106.034C189.089 106.034 189.616 106.701 189.616 107.294V108.776C191.346 106.849 194.959 105.145 197.668 105.145ZM105.86 137.079C105.408 135.967 104.957 134.782 104.505 133.819C103.753 132.189 103 130.633 102.398 129.225L102.323 129.151C96.0018 115.518 89.1539 101.737 81.9298 88.1779L81.6287 87.6592C80.8762 86.3254 80.1236 84.8438 79.4464 83.3619C78.5433 81.7319 77.6403 80.0278 76.1352 78.3976C73.2004 74.7672 68.9864 72.7667 64.4713 72.7667C59.8809 72.7667 55.7419 74.7672 52.6566 78.1754C51.3021 79.8054 50.2485 81.5095 49.3456 83.1396C48.5931 84.6213 47.8406 86.0293 47.1631 87.437L46.8622 87.9556C39.7885 101.589 32.8652 115.37 26.4689 128.929L26.3936 129.077C25.7164 130.559 25.0391 132.04 24.2866 133.671C23.835 134.634 23.3835 135.745 22.9319 136.931C21.728 140.265 21.3516 143.451 21.8032 146.711C22.7816 153.527 27.447 159.232 33.7683 161.751C36.1764 162.715 38.6598 163.233 41.2182 163.233C41.9707 163.233 42.8738 163.159 43.6263 163.085C46.6364 162.715 49.797 161.751 52.8071 159.973C56.5697 157.899 60.1818 154.861 64.2455 150.563C68.3091 154.935 71.9965 157.899 75.6838 159.973C78.6939 161.677 81.8545 162.715 84.8646 163.085C85.6171 163.159 86.5202 163.233 87.2727 163.233C89.8311 163.233 92.4651 162.789 94.7226 161.751C101.194 159.232 105.709 153.379 106.688 146.711C107.44 143.599 107.064 140.413 105.86 137.079ZM64.3207 141.747C59.354 135.597 56.1183 129.744 54.9894 124.853C54.538 122.779 54.4627 120.927 54.6885 119.297C54.8389 117.815 55.441 116.555 56.1935 115.518C57.9242 113.073 60.859 111.517 64.3207 111.517C67.7822 111.517 70.7923 112.999 72.4479 115.518C73.2004 116.629 73.7273 117.889 73.9529 119.297C74.254 120.927 74.1035 122.853 73.6521 124.853C72.5232 129.744 69.2873 135.523 64.3207 141.747ZM101.044 146.044C100.366 150.786 97.206 154.861 92.6909 156.639C90.5084 157.528 88.1005 157.825 85.6924 157.528C83.3595 157.232 81.102 156.565 78.6939 155.157C75.3827 153.379 72.0717 150.563 68.1586 146.34C74.254 139.005 77.9414 132.263 79.2959 126.261C79.9731 123.446 80.0484 120.927 79.7475 118.556C79.3711 116.259 78.5433 114.184 77.2641 112.406C74.4046 108.331 69.5884 105.96 64.2455 105.96C58.9025 105.96 54.0863 108.405 51.2268 112.406C49.9476 114.184 49.1198 116.333 48.7434 118.556C48.3673 120.927 48.4425 123.52 49.1951 126.261C50.5495 132.263 54.3874 139.079 60.3323 146.414C56.5697 150.563 53.1835 153.379 49.797 155.231C47.3889 156.565 45.1314 157.306 42.7985 157.602C40.3152 157.899 37.9072 157.528 35.8 156.713C31.2849 154.935 28.0492 150.786 27.447 146.118C27.1461 143.821 27.372 141.598 28.2748 139.079C28.5759 138.19 29.0274 137.301 29.479 136.19C30.1562 134.708 30.8335 133.226 31.586 131.67L31.6613 131.522C37.9825 118.037 44.8305 104.182 51.904 90.7711L52.2051 90.2525C52.9577 88.9187 53.7102 87.437 54.3874 86.1032C55.1399 84.6213 55.9677 83.2877 56.9461 82.1022C58.9025 79.9536 61.4612 78.7681 64.3207 78.7681C67.1803 78.7681 69.7389 79.9536 71.6954 82.1022C72.6737 83.2877 73.5015 84.6213 74.254 86.1032C75.0066 87.437 75.7591 88.9187 76.4363 90.2525L76.7374 90.7711C83.7357 104.256 90.5837 118.111 96.9049 131.596V131.67C97.6574 133.152 98.2594 134.782 99.0119 136.19C99.4636 137.301 99.915 138.19 100.216 139.079C101.119 141.376 101.42 143.673 101.044 146.044Z" fill="#F59376"/>
</svg>
